<svg width="124" height="31" viewBox="0 0 124 31" fill="none" xmlns="http://www.w3.org/2000/svg">
<path d="M114.505 30.1146C120.058 30.1146 122.47 27.8524 122.47 25.0694C122.47 21.9738 119.358 21.066 115.964 20.8129C115.294 20.7683 114.892 20.6344 114.892 20.3069C114.892 20.0242 115.22 19.7414 116.872 19.7414C118.718 19.7414 120.579 20.1283 121.993 20.5897L122.053 20.5302L121.696 16.1398C120.43 15.6487 118.153 15.2617 116.083 15.2617C111.409 15.2617 108.804 17.4197 108.804 20.1283C108.804 22.6435 111.037 24.2062 114.982 24.5038C115.756 24.5634 116.381 24.6973 116.381 25.0694C116.381 25.4415 115.771 25.6349 114.371 25.6349C112.317 25.6349 110.471 25.1885 109.057 24.7569H108.997L109.399 29.3556C110.248 29.6681 112.108 30.1146 114.505 30.1146ZM101.911 15.5743L100.705 18.5806L99.1272 21.5124H99.0825V15.5743H92.577L93.1873 22.7477L92.577 29.8021H99.0825V25.7391L100.125 24.9652L100.914 26.9446L101.628 29.817H108.789V29.7723L104.948 21.9887L108.789 15.604L101.911 15.5891V15.5743ZM87.3815 30.1146C88.8999 30.1146 90.1207 29.9509 91.2372 29.6532L91.6838 24.4294H91.6689C90.3737 24.7866 89.2126 25.0396 88.0067 25.0396C85.6844 25.0396 84.6274 24.1467 84.6274 22.703C84.6274 21.2594 85.6844 20.3665 88.0067 20.3665C89.2126 20.3665 90.3737 20.6046 91.6689 20.9915H91.6838L91.2372 15.738C90.1207 15.4254 88.8999 15.2766 87.3815 15.2766C81.5607 15.2766 78.5387 18.3424 78.5387 22.703C78.5387 27.0637 81.5756 30.1295 87.3815 30.1295M69.7257 25.5605C68.4306 25.5605 67.7904 24.4592 67.7904 22.7179C67.7904 20.9767 68.4157 19.8753 69.7257 19.8753C71.0358 19.8753 71.6164 20.9767 71.6164 22.7179C71.6164 24.4592 71.006 25.5605 69.7257 25.5605ZM69.7257 30.1295C74.7426 30.1295 77.7199 27.1976 77.7199 22.703C77.7199 18.2085 74.7575 15.2766 69.7257 15.2766C64.694 15.2766 61.6868 18.2085 61.6868 22.703C61.6868 27.1976 64.6493 30.1295 69.7257 30.1295ZM53.112 30.1295C58.6648 30.1295 61.0765 27.8673 61.0765 25.0843C61.0765 21.9887 57.9651 21.0808 54.571 20.8278C53.901 20.7832 53.4991 20.6492 53.4991 20.3218C53.4991 20.0391 53.8266 19.7563 55.479 19.7563C57.325 19.7563 59.1859 20.1432 60.6001 20.6046L60.6597 20.5451L60.2875 16.1547C59.0221 15.6636 56.7444 15.2766 54.6752 15.2766C50.0007 15.2766 47.3955 17.4346 47.3955 20.1432C47.3955 22.6584 49.6285 24.2211 53.5735 24.5187C54.3476 24.5783 54.9729 24.7122 54.9729 25.0843C54.9729 25.4563 54.3625 25.6498 52.9632 25.6498C50.9088 25.6498 49.0628 25.2033 47.6486 24.7717H47.589L47.991 29.3705C48.8395 29.683 50.7004 30.1295 53.0972 30.1295" fill="#2B2C30"/>
<path d="M116.946 0.0664985L116.157 3.25139L115.741 5.08195H115.651L115.22 3.25139L114.431 0.0664985H107.597L112.376 10.7671L112.019 14.3092H118.733L118.361 10.8118L123.154 0.0813812H116.946V0.0664985ZM100.586 3.78716C101.911 3.78716 102.7 4.38247 102.7 5.66238C102.7 6.94229 101.911 7.59712 100.586 7.59712V3.80205V3.78716ZM101.762 0.0664985H94.2887L94.899 7.23994L94.4971 14.2943H101.092L100.586 11.1987L102.655 11.3327C105.811 11.3327 108.089 9.04074 108.089 5.67726C108.089 2.31378 105.811 0.0516159 101.762 0.0516159M85.9818 3.77228C87.3067 3.77228 88.0957 4.36759 88.0957 5.6475C88.0957 6.9274 87.3067 7.58224 85.9818 7.58224V3.78716V3.77228ZM87.1579 0.0516159H79.6996L80.3099 7.22506L79.908 14.2794H86.5029L85.9967 11.1838L88.066 11.3178C91.222 11.3178 93.4997 9.02586 93.4997 5.66238C93.4997 2.2989 91.222 0.0367332 87.1728 0.0367332M71.6905 8.53473H69.9041L70.7824 3.38533H70.827L71.7054 8.53473H71.6905ZM79.1934 14.2646L77.2433 7.16553L75.7397 0.0218506H66.2568L64.9616 7.16553L63.2794 14.2646H68.9513L69.2788 12.3H72.3306L72.6581 14.2646H79.2083H79.1934ZM56.0593 0.0664985V4.72477H53.737V0.0664985H47.2314L47.8418 7.23994L47.2314 14.2943H53.737V9.5914H56.0593V14.2943H62.5649L61.9545 7.23994L62.5649 0.0664985H56.0593Z" fill="#2B2C30"/>
<path d="M24.9013 5.98975C24.0676 5.98975 23.3828 6.65947 23.3828 7.49289C23.3828 8.32632 24.0527 9.01093 24.9013 9.01093C25.7498 9.01093 26.4048 8.34121 26.4048 7.49289C26.4048 6.64458 25.7349 5.98975 24.9013 5.98975Z" fill="#2B2C30"/>
<path d="M32.3443 0.0664062H17.4426L18.6485 12.8804H14.1229L15.3287 0.0664062H0.412109L1.82636 14.9491L0.412109 29.8317H14.8523L12.2471 19.0269L16.3708 19.8306L20.4944 19.0269L17.8892 29.8317H32.3294L30.9152 14.9491L32.3145 0.0664062H32.3443ZM7.8704 10.767C6.0691 10.767 4.5953 9.30854 4.5953 7.49285C4.5953 5.67717 6.05421 4.21867 7.8704 4.21867C9.68659 4.21867 11.1455 5.67717 11.1455 7.49285C11.1455 9.30854 9.68659 10.767 7.8704 10.767ZM24.9009 10.767C23.0996 10.767 21.6258 9.30854 21.6258 7.49285C21.6258 5.67717 23.0847 4.21867 24.9009 4.21867C26.7171 4.21867 28.176 5.67717 28.176 7.49285C28.176 9.30854 26.7171 10.767 24.9009 10.767Z" fill="#2B2C30"/>
<path d="M7.87027 5.9895C7.03661 5.9895 6.3667 6.65922 6.3667 7.49265C6.3667 8.32608 7.03661 9.01068 7.87027 9.01068C8.70393 9.01068 9.37384 8.34096 9.37384 7.49265C9.37384 6.64434 8.70393 5.9895 7.87027 5.9895Z" fill="#2B2C30"/>
</svg>
