<?xml version="1.0" encoding="UTF-8"?>
<svg id="Layer_1" data-name="Layer 1" xmlns="http://www.w3.org/2000/svg" viewBox="0 0 24 24">
  <defs>
    <style>
      .cls-1 {
        fill: #2b2c30;
        stroke-width: 0px;
      }
    </style>
  </defs>
  <path class="cls-1" d="m11.66,15c0-.44-.36-.8-.8-.8-1.07.04-1.07,1.57,0,1.61.44,0,.8-.36.8-.8Z"/>
  <path class="cls-1" d="m23.49,13.06l-2.13-2.83C20.91-1.35,5.21-3.9,1.02,6.74h4.26l1.3-1.3c.13-.13.31-.21.5-.21h1.67c.83-2.34,4.26-1.81,4.31.7-.05,2.52-3.49,3.05-4.31.7h-1.38l-1.3,1.3c-.13.13-.31.21-.5.21H.6c-.12.52-.2,1.06-.23,1.61h12.92c.83-2.34,4.26-1.81,4.31.7-.05,2.52-3.49,3.05-4.31.7H.37c.04.55.11,1.08.23,1.61h4.97c.19,0,.37.07.5.21l1.3,1.3h1.38c.83-2.34,4.26-1.81,4.31.7-.05,2.52-3.49,3.05-4.31.7h-1.67c-.19,0-.37-.07-.5-.21l-1.3-1.3H1.02c.59,1.56,1.55,2.96,2.81,4.1l-1.21,4.83c-.05.21,0,.43.13.6.13.17.34.27.56.27h9.81c.32,0,.61-.22.68-.53l.6-2.4,4.65.66c.36.05.7-.18.78-.53l1.44-5.77,2.04-1.36c.16-.11.27-.28.3-.47.03-.19-.01-.39-.13-.54h0Z"/>
  <path class="cls-1" d="m11.66,5.94c0-.44-.36-.8-.8-.8-1.07.04-1.07,1.57,0,1.61.44,0,.8-.36.8-.8Z"/>
  <path class="cls-1" d="m16.19,10.47c0-.44-.36-.8-.8-.8-1.07.04-1.07,1.57,0,1.61.44,0,.8-.36.8-.8Z"/>
</svg>