<?xml version="1.0" encoding="UTF-8"?>
<svg id="Layer_1" data-name="Layer 1" xmlns="http://www.w3.org/2000/svg" viewBox="0 0 24 24">
  <defs>
    <style>
      .cls-1 {
        fill: #2b2c30;
        stroke-width: 0px;
      }
    </style>
  </defs>
  <path class="cls-1" d="m.8,2.38h2.17c.55,0,1.01.4,1.1.94l.33,2.18v.02l1.44,9.82c.2,1.33,1.34,2.31,2.68,2.31h10.95c1.25,0,2.35-.86,2.63-2.08,0,0,1.6-9.19,1.91-10.98H5.87s-.22-1.5-.22-1.5c-.2-1.33-1.34-2.31-2.68-2.31H.8C.36.78,0,1.14,0,1.58s.36.8.8.8h0Zm16.92,6.22c.06-.44.47-.74.9-.68s.74.47.68.9c0,0,0,0,0,0l-.7,4.82c-.06.39-.4.68-.79.68-.04,0-.08,0-.12,0-.44-.07-.74-.47-.67-.91l.7-4.81Zm-4.25.11c0-.44.36-.8.8-.8s.8.36.8.8v4.61c0,.44-.36.8-.8.8s-.8-.36-.8-.8h0v-4.61Zm-3.56-.79c.44-.06.84.24.9.68l.7,4.81c.06.44-.24.84-.67.91-.04,0-.08,0-.12,0-.39,0-.73-.29-.79-.68l-.7-4.82c-.06-.44.24-.85.68-.91,0,0,0,0,0,0Z"/>
  <path class="cls-1" d="m11.55,21.22c0-1.1-.89-2-2-2s-2,.89-2,2,.89,2,2,2h0c1.1,0,2-.89,2-2Z"/>
  <path class="cls-1" d="m17.98,19.22c-1.1,0-2,.89-2,2s.89,2,2,2,2-.89,2-2h0c0-1.1-.89-2-2-2Z"/>
</svg>