<?xml version="1.0" encoding="UTF-8"?>
<svg id="Layer_1" data-name="Layer 1" xmlns="http://www.w3.org/2000/svg" viewBox="0 0 24 24">
  <defs>
    <style>
      .cls-1 {
        fill: #2b2c30;
        stroke-width: 0px;
      }
    </style>
  </defs>
  <path class="cls-1" d="m22.69,8.7c-.83-.83-1.95-1.3-3.13-1.29-.12,0-.23,0-.36,0-.21-3.79-3.34-6.76-7.14-6.76-1.57,0-3.1.51-4.35,1.48-1.14.88-1.86,2.23-2.31,3.6C1.78,6.49-.12,8.76,0,11.79c0,0,0,.01,0,.02H0s0,.02,0,.02c0,2.81,2.28,5.08,5.09,5.08h4.54v1.06h-1.8c-.11,0-.22.04-.29.12s-.12.18-.12.29v1.78c-.25.07-.47.2-.65.38-.44.43-.57,1.08-.34,1.64.23.57.78.94,1.39.94.61,0,1.16-.36,1.4-.92.24-.56.11-1.21-.32-1.65h0c-.18-.21-.43-.33-.64-.4v-1.35h1.78c.24,0,.43-.2.44-.44v-1.46h1.11v3.49c-.72.21-1.18.92-1.07,1.66.11.74.74,1.29,1.49,1.29s1.39-.55,1.49-1.29c.11-.74-.35-1.45-1.07-1.66v-3.49h1.11v1.46c0,.24.2.43.44.44h1.78v1.35c-.21.07-.46.19-.64.4h0c-.58.59-.58,1.54.02,2.13.59.58,1.54.58,2.13-.01.58-.59.58-1.54-.01-2.13-.18-.18-.4-.32-.65-.38v-1.78c0-.11-.04-.22-.12-.29-.08-.08-.18-.12-.29-.12h-1.8v-1.06h4.54c2.81,0,5.08-2.27,5.09-5.08,0-.03,0-.06-.01-.1-.02-1.14-.49-2.23-1.29-3.04Z"/>
</svg>